PathFileType	4	(X/Y/Z)	C:/Users/opensim2020/Desktop/walking_exp_matlab/subject01_walking10_straight_03.trc																																																																																																																															
DataRate	CameraRate	NumFrames	NumMarkers	Units	OrigDataRate	OrigDataStartFrame	OrigNumFrames																																																																																																																											
100	100	4	43	mm	100	2929	317																																																																																																																											
Frame#	Time	LFHD			RFHD			LBHD			RBHD			C7			T10			CLAV			STRN			RBAK			LSHO			LUPA			LELB			LFRM			LWRA			LWRB			LFIN			RSHO			RUPA			RELB			RFRM			RWRA			RWRB			RFIN			LASI			RASI			LPSI			RPSI			LTHI			LKNE			LTIB			LANK			LHEE			LTOE			RTHI			RKNE			RTIB			RANK			RHEE			RTOE			*39			*40			*41			*42		
		X1	Y1	Z1	X2	Y2	Z2	X3	Y3	Z3	X4	Y4	Z4	X5	Y5	Z5	X6	Y6	Z6	X7	Y7	Z7	X8	Y8	Z8	X9	Y9	Z9	X10	Y10	Z10	X11	Y11	Z11	X12	Y12	Z12	X13	Y13	Z13	X14	Y14	Z14	X15	Y15	Z15	X16	Y16	Z16	X17	Y17	Z17	X18	Y18	Z18	X19	Y19	Z19	X20	Y20	Z20	X21	Y21	Z21	X22	Y22	Z22	X23	Y23	Z23	X24	Y24	Z24	X25	Y25	Z25	X26	Y26	Z26	X27	Y27	Z27	X28	Y28	Z28	X29	Y29	Z29	X30	Y30	Z30	X31	Y31	Z31	X32	Y32	Z32	X33	Y33	Z33	X34	Y34	Z34	X35	Y35	Z35	X36	Y36	Z36	X37	Y37	Z37	X38	Y38	Z38	X39	Y39	Z39	X40	Y40	Z40	X41	Y41	Z41	X42	Y42	Z42	X43	Y43	Z43
																																																																																																																																		
80	0.79	-406.49625	1678.57861	1480.57983	-374.18353	1688.08142	1589.21851	-510.1806	1615.15955	1509.05017	-478.37573	1623.57544	1624.74072	-518.24457	1430.98218	1538.93896	-548.90149	1139.34387	1546.79944	-373.11063	1367.57776	1530.55432	-328.61554	1212.21338	1520.87683	-564.36969	1235.83337	1616.89258	-439.53683	1397.57227	1372.64734	-480.11572	1213.3811	1291.02734	-502.84283	1064.36707	1294.37891	-476.21671	954.99811	1266.91394	-405.70999	834.76935	1276.18506	-463.60846	832.64044	1260.6709	-420.77151	759.78967	1245.99707	-429.04999	1391.45483	1685.4292	-468.35129	1187.44995	1787.80957	-454.04858	1063.22498	1791.24475	-406.24509	952.58301	1821.88428	-302.39096	856.49463	1812.08496	-350.28586	844.9209	1842.3606	-296.36014	778.69958	1847.39612	-389.50281	935.93097	1425.0481	-372.56329	931.38513	1641.33325	-570.87842	943.44324	1488.56409	-558.8042	946.6955	1633.25952	-340.30347	622.44543	1343.88147	-312.96838	490.32227	1353.1626	-384.59424	316.79828	1349.79248	-431.37643	102.03391	1399.06653	-465.02725	72.30412	1461.49597	-302.00769	52.53179	1359.92126	-424.47711	598.29584	1688.80371	-425.99332	438.90042	1657.73071	-488.06302	272.86105	1664.22021	-530.03656	72.23539	1608.74402	-582.91718	35.81744	1560.90588	-390.61823	34.15342	1601.5791	-395.24561	1719.02319	1570.11707	1973.18359	1023.49097	-3101.89819	2012.45508	1022.02271	-3140.65771	NaN	NaN	NaN
81	0.8	-400.20139	1678.09802	1479.79187	-367.86453	1687.74487	1588.46143	-503.98709	1614.76221	1508.33838	-472.02896	1623.24841	1624.04187	-511.69983	1430.64087	1538.74402	-542.90253	1139.14258	1546.40222	-366.73111	1367.15881	1530.12317	-322.42422	1211.68579	1520.55994	-558.00922	1235.70825	1616.84778	-433.39395	1397.0061	1372.29736	-475.13092	1212.94482	1290.90759	-498.62714	1064.14172	1294.33838	-473.20935	954.63818	1266.97717	-403.67346	833.74695	1275.69629	-461.66068	832.1167	1260.4635	-419.66385	758.91644	1245.58704	-422.24063	1391.15637	1685.06787	-461.18668	1187.23926	1787.82654	-446.81403	1062.93323	1791.35718	-398.02292	952.61981	1821.90002	-293.44968	857.5141	1811.99304	-341.17691	845.46594	1842.2135	-286.62418	779.8988	1847.40002	-383.56326	935.78687	1424.80457	-367.3649	930.90161	1641.3009	-565.18457	943.06226	1487.99683	-553.66083	946.26862	1632.74158	-334.58664	622.22211	1343.16187	-305.99677	490.45987	1352.85242	-371.51132	314.71964	1348.4043	-409.73932	97.79227	1396.01367	-442.14105	66.33542	1458.23169	-277.53134	53.15813	1357.62903	-420.45377	597.86224	1688.44189	-423.11862	438.45343	1657.4989	-486.30841	272.68616	1663.99475	-529.55463	72.32849	1608.51404	-583.22968	36.46325	1560.65979	-390.51389	33.95157	1601.5094	-388.97256	1718.7041	1569.33215	1973.01599	1023.6825	-3102.04395	2012.49438	1022.01599	-3140.72046	NaN	NaN	NaN
82	0.81	-393.73004	1677.5957	1478.97583	-361.55167	1687.44702	1587.61365	-497.58551	1614.1897	1507.5387	-465.61481	1622.88757	1623.29016	-505.4375	1430.35522	1538.48779	-536.83777	1138.87195	1545.84583	-360.30612	1366.64343	1529.65186	-316.18365	1211.15784	1520.26184	-551.71777	1235.56006	1616.77014	-427.22092	1396.448	1371.85193	-469.96817	1212.50671	1290.70923	-494.28174	1063.89197	1294.2821	-469.89932	954.22314	1266.65369	-401.46692	832.72162	1275.19141	-459.53961	831.60297	1260.15625	-418.11444	758.01074	1245.10706	-415.42728	1390.78357	1684.66711	-454.04318	1186.98108	1787.79944	-439.5658	1062.64624	1791.45667	-389.89514	952.62836	1821.81567	-284.62497	858.44952	1811.74109	-332.23517	845.78595	1841.76526	-277.00592	780.98309	1847.19287	-377.66843	935.54156	1424.5697	-362.10492	930.39777	1641.11694	-559.43585	942.58289	1487.29346	-548.37708	945.85736	1632.10413	-329.01294	621.87683	1342.48523	-299.36694	490.35959	1352.46619	-358.33813	312.60214	1346.75366	-386.96179	93.81258	1393.13635	-419.32468	61.02596	1454.79883	-253.43463	54.49843	1355.17737	-416.427	597.35956	1688.15063	-420.28491	437.91574	1657.20654	-484.84335	272.60251	1663.68164	-529.56366	72.55651	1608.52661	-582.66693	36.21886	1560.64172	-390.41141	33.92175	1601.44873	-382.73471	1718.25891	1568.43579	1973.18408	1023.4881	-3101.91138	2012.57971	1022.12048	-3140.76831	NaN	NaN	NaN
83	0.82	-387.31573	1677.10486	1478.12939	-355.16443	1687.03992	1586.6687	-490.95569	1613.46582	1506.78015	-459.24182	1622.44934	1622.41968	-498.77533	1429.97607	1538.21021	-530.83173	1138.62939	1545.25952	-353.88809	1366.1001	1529.14404	-309.97717	1210.54602	1519.88489	-545.3515	1235.27527	1616.52832	-421.04202	1395.87732	1371.38965	-464.84143	1212.00354	1290.40723	-489.9982	1063.67261	1293.9939	-466.46375	953.79706	1266.30725	-399.05554	831.7547	1274.5752	-457.20529	831.08276	1259.78528	-416.4595	757.20264	1244.56006	-408.63132	1390.3761	1684.20593	-446.95267	1186.57764	1787.62842	-432.31082	1062.24597	1791.41687	-381.76581	952.56543	1821.61951	-275.83176	859.2757	1811.34753	-323.34793	846.23114	1841.43518	-267.50696	781.97528	1846.91541	-371.71118	935.26794	1424.29602	-356.86694	929.91913	1640.95166	-553.68878	942.15027	1486.53101	-543.33447	945.44391	1631.3584	-323.47968	621.39838	1341.81311	-292.76877	490.2681	1352.17078	-345.21878	310.49585	1345.01733	-365.05228	90.28971	1389.82825	-396.4949	56.25045	1451.17896	-229.59169	55.99863	1352.6178	-412.43106	596.97308	1687.64783	-417.38837	437.41095	1656.96643	-482.89941	272.69363	1663.54993	-529.31293	72.63356	1608.39966	-582.66541	36.71989	1560.57471	-390.28915	33.93103	1601.46875	-376.29813	1717.84155	1567.48682	1973.08643	1023.40027	-3101.91968	2012.51038	1022.03979	-3140.65796	NaN	NaN	NaN
